HIERARCHY
ROOT Hips
{
  OFFSET 50.7887 97.0127 5.21521
  CHANNELS 6 Xposition Yposition Zposition Zrotation Xrotation Yrotation
  JOINT spine
  {
    OFFSET 0 7.96568 0.458067
    CHANNELS 3 Zrotation Xrotation Yrotation
    JOINT spine1
    {
      OFFSET 0 10.2431 0
      CHANNELS 3 Zrotation Xrotation Yrotation
      JOINT spine2
      {
        OFFSET 0 9.81475 0
        CHANNELS 3 Zrotation Xrotation Yrotation
        JOINT Neck
        {
          OFFSET 0 25.1986 1.20138
          CHANNELS 3 Zrotation Xrotation Yrotation
          JOINT Head
          {
            OFFSET 0 7.61315 0
            CHANNELS 3 Zrotation Xrotation Yrotation
            End Site
            {
              OFFSET 0 18.4281 -6.07733
            }
          }
        }
        JOINT RightShoulder
        {
          OFFSET -4.1327 10.5992 -0.575451
          CHANNELS 3 Zrotation Xrotation Yrotation
          JOINT RightArm
          {
            OFFSET 0 13.9018 0
            CHANNELS 3 Zrotation Xrotation Yrotation
            JOINT RightArmRoll
            {
              OFFSET 0 7.01789 0
              CHANNELS 3 Zrotation Xrotation Yrotation
              JOINT RightForeArm
              {
                OFFSET 0 20.4406 0
                CHANNELS 3 Zrotation Xrotation Yrotation
                JOINT RightForeArmRoll
                {
                  OFFSET 0 7.87516 0
                  CHANNELS 3 Zrotation Xrotation Yrotation
                  JOINT RightHand
                  {
                    OFFSET 0 15.8037 0
                    CHANNELS 3 Zrotation Xrotation Yrotation
                    End Site
                    {
                      OFFSET 0 0 0
                    }
                  }
                }
              }
            }
          }
        }
        JOINT LeftShoulder
        {
          OFFSET 4.1327 10.5992 -0.575451
          CHANNELS 3 Zrotation Xrotation Yrotation
          JOINT LeftArm
          {
            OFFSET 0 13.9018 0
            CHANNELS 3 Zrotation Xrotation Yrotation
            JOINT LeftArmRoll
            {
              OFFSET 0 7.01789 0
              CHANNELS 3 Zrotation Xrotation Yrotation
              JOINT LeftForeArm
              {
                OFFSET 0 20.4406 0
                CHANNELS 3 Zrotation Xrotation Yrotation
                JOINT LeftForeArmRoll
                {
                  OFFSET 0 7.87516 0
                  CHANNELS 3 Zrotation Xrotation Yrotation
                  JOINT LeftHand
                  {
                    OFFSET 0 15.8037 0
                    CHANNELS 3 Zrotation Xrotation Yrotation
                    End Site
                    {
                      OFFSET 0 0 0
                    }
                  }
                }
              }
            }
          }
        }
      }
    }
  }
  JOINT RightUpLeg
  {
    OFFSET -7.06048 -1.2947 -1.0861
    CHANNELS 3 Zrotation Xrotation Yrotation
    JOINT RightUpLegRoll
    {
      OFFSET 0 18.5308 0
      CHANNELS 3 Zrotation Xrotation Yrotation
      JOINT RightLeg
      {
        OFFSET 0 -22.9476 0
        CHANNELS 3 Zrotation Xrotation Yrotation
        JOINT RightLegRoll
        {
          OFFSET 0 23.0226 0
          CHANNELS 3 Zrotation Xrotation Yrotation
          JOINT RightFoot
          {
            OFFSET 0 19.1625 0
            CHANNELS 3 Zrotation Xrotation Yrotation
            JOINT RightToeBase
            {
              OFFSET 0 16.0188 0
              CHANNELS 3 Zrotation Xrotation Yrotation
              End Site
              {
                OFFSET 0.00678979 7.75782 -0.894206
              }
            }
          }
        }
      }
    }
  }
  JOINT LeftUpLeg
  {
    OFFSET 7.06048 -1.2947 -1.0861
    CHANNELS 3 Zrotation Xrotation Yrotation
    JOINT LeftUpLegRoll
    {
      OFFSET 0 18.5309 0
      CHANNELS 3 Zrotation Xrotation Yrotation
      JOINT LeftLeg
      {
        OFFSET 0 22.9475 0
        CHANNELS 3 Zrotation Xrotation Yrotation
        JOINT LeftLegRoll
        {
          OFFSET 0 23.2355 0
          CHANNELS 3 Zrotation Xrotation Yrotation
          JOINT LeftFoot
          {
            OFFSET 0 18.9496 0
            CHANNELS 3 Zrotation Xrotation Yrotation
            JOINT LeftToeBase
            {
              OFFSET 0 16.0188 0
              CHANNELS 3 Zrotation Xrotation Yrotation
              End Site
              {
                OFFSET -0.0304289 7.75782 -0.894206
              }
            }
          }
        }
      }
    }
  }
}
MOTION
Frames: 6
Frame Time: 0.00208333
51.5678 96.945 2.39111 -0.398868 -6.83098 -1.63946 0.224767 -0.0856119 -0.346879 0.439061 3.83021 -0.721794 0.448347 5.47519 -0.729939 -17.2667 12.9107 -3.1345 18.4611 12.2822 -8.04301 70.2849 -3.25336 -2.94579 97.3629 16.1812 -30.3051 -1.605e-006 -2.28672e-006 4.59454e-006 27.4366 81.493 -29.9064 5.43876e-006 -6.82298e-006 -3.00001 8.02996 -4.95101 0.697521 -66.7721 0.338212 0.791061 -101.446 15.0435 17.3508 -2.43528e-005 -1.07216e-006 2.15633e-006 -29.213 81.221 31.3833 8.22654e-006 1.00715e-005 2.99999 -8.02989 -4.95102 -0.697571 174.85 -4.0968 4.42976 -180 7.01506e-015 178.759 178.422 6.75848 179.648 -2.68343e-006 -3.0579e-006 0.0861819 -18.9005 68.1164 19.6458 8.12585 25.2333 -3.4832 -174.098 -6.83098 -2.88154 4.5067e-006 -1.99009e-005 -1.265 -2.71901 -4.8291 -0.027964 -1.73592e-007 -1.62038e-006 -0.0458166 18.3952 67.5488 -19.1578 -8.12844 25.2331 3.4843 
51.5587 96.9446 2.40428 -0.399248 -6.82826 -1.63484 0.225136 -0.0836497 -0.345704 0.440565 3.83414 -0.71955 0.449851 5.47912 -0.727728 -17.2125 12.9202 -3.12012 18.4036 12.2912 -8.01569 70.2992 -3.26455 -2.9523 97.235 15.9687 -30.2535 -1.605e-006 -2.28672e-006 4.59454e-006 27.3642 81.5402 -29.8658 5.43876e-006 -6.82298e-006 -3.00001 8.02996 -4.95101 0.697521 -66.7702 0.33987 0.78996 -101.385 14.9597 17.2012 -2.43528e-005 -1.07216e-006 2.15633e-006 -28.9695 81.1397 31.1139 8.22654e-006 1.00715e-005 2.99999 -8.02989 -4.95102 -0.697571 174.851 -4.09676 4.42819 -180 7.01506e-015 178.759 178.423 6.75564 179.648 -2.68343e-006 -3.0579e-006 0.0861819 -18.9001 68.116 19.6454 8.12585 25.2333 -3.4832 -174.098 -6.82682 -2.87976 4.5067e-006 -1.99009e-005 -1.265 -2.71669 -4.83113 -0.0279322 -1.73592e-007 -1.62038e-006 -0.0458166 18.3949 67.5484 -19.1574 -8.12844 25.2331 3.4843 
51.5801 96.9444 2.40258 -0.399602 -6.8254 -1.63012 0.225492 -0.0816994 -0.344474 0.442064 3.83804 -0.717195 0.45135 5.48302 -0.725407 -17.1586 12.9297 -3.10629 18.3462 12.2994 -7.9889 70.3146 -3.27618 -2.95911 97.1062 15.757 -30.2034 -1.605e-006 -2.28672e-006 4.59454e-006 27.2922 81.5882 -29.8261 5.43876e-006 -6.82298e-006 -3.00001 8.02996 -4.95101 0.697521 -66.768 0.341581 0.788783 -101.325 14.8762 17.0502 -2.43528e-005 -1.07216e-006 2.15633e-006 -28.7337 81.06 30.8529 8.22654e-006 1.00715e-005 2.99999 -8.02989 -4.95102 -0.697571 174.853 -4.09645 4.42648 -180 7.01506e-015 178.759 178.425 6.75291 179.648 -2.68343e-006 -3.0579e-006 0.0861819 -18.8998 68.1156 19.6451 8.12585 25.2333 -3.4832 -174.098 -6.82225 -2.87835 4.5067e-006 -1.99009e-005 -1.265 -2.71476 -4.83354 -0.027925 -1.73592e-007 -1.62038e-006 -0.0458166 18.3945 67.5479 -19.157 -8.12844 25.2331 3.4843 
51.5736 96.9443 2.3935 -0.399939 -6.82243 -1.62533 0.22584 -0.0797572 -0.343204 0.44356 3.84193 -0.714763 0.452845 5.48691 -0.723007 -17.1049 12.9392 -3.09284 18.2889 12.307 -7.96247 70.3306 -3.28812 -2.96611 96.9769 15.5457 -30.1544 -1.605e-006 -2.28672e-006 4.59454e-006 27.2204 81.6368 -29.7869 5.43876e-006 -6.82298e-006 -3.00001 8.02996 -4.95101 0.697521 -66.7655 0.343331 0.787553 -101.266 14.7928 16.8983 -2.43528e-005 -1.07216e-006 2.15633e-006 -28.5046 80.9815 30.5988 8.22654e-006 1.00715e-005 2.99999 -8.02989 -4.95102 -0.697571 174.854 -4.09595 4.42468 -180 7.01506e-015 178.759 178.426 6.75022 179.647 -2.68343e-006 -3.0579e-006 0.0861819 -18.8995 68.1152 19.6447 8.12585 25.2333 -3.4832 -174.098 -6.81739 -2.8772 4.5067e-006 -1.99009e-005 -1.265 -2.71309 -4.83622 -0.0279351 -1.73592e-007 -1.62038e-006 -0.0458166 18.3941 67.5474 -19.1565 -8.12844 25.2331 3.4843 
51.5607 96.944 2.39396 -0.400265 -6.81941 -1.62049 0.226183 -0.0778197 -0.341913 0.445053 3.8458 -0.712285 0.454339 5.49078 -0.720563 -17.0512 12.9487 -3.07962 18.2317 12.3144 -7.93624 70.347 -3.30023 -2.97324 96.8475 15.3346 -30.1063 -1.605e-006 -2.28672e-006 4.59454e-006 27.1484 81.6858 -29.7477 5.43876e-006 -6.82298e-006 -3.00001 8.02996 -4.95101 0.697521 -66.7628 0.345101 0.786292 -101.208 14.7095 16.7459 -2.43528e-005 -1.07216e-006 2.15633e-006 -28.2809 80.9034 30.3505 8.22654e-006 1.00715e-005 2.99999 -8.02989 -4.95102 -0.697571 174.856 -4.09533 4.42283 -180 7.01506e-015 178.759 178.427 6.74757 179.647 -2.68343e-006 -3.0579e-006 0.0861819 -18.8991 68.1148 19.6443 8.12585 25.2333 -3.4832 -174.097 -6.81237 -2.8762 4.5067e-006 -1.99009e-005 -1.265 -2.71157 -4.83904 -0.027955 -1.73592e-007 -1.62038e-006 -0.0458166 18.3936 67.5467 -19.156 -8.12844 25.2331 3.4843 
51.5526 96.9557 2.38883 -0.400589 -6.81637 -1.61565 0.226524 -0.0758834 -0.340616 0.446546 3.84968 -0.709797 0.455831 5.49466 -0.718108 -16.9976 12.9582 -3.06644 18.1745 12.3217 -7.91007 70.3635 -3.31239 -2.98039 96.7183 15.1235 -30.0589 -1.605e-006 -2.28672e-006 4.59454e-006 27.0761 81.7349 -29.7082 5.43876e-006 -6.82298e-006 -3.00001 8.02996 -4.95101 0.697521 -66.7601 0.346878 0.785024 -101.151 14.6259 16.5934 -2.43528e-005 -1.07216e-006 2.15633e-006 -28.0618 80.8254 30.1068 8.22654e-006 1.00715e-005 2.99999 -8.02989 -4.95102 -0.697571 174.857 -4.09469 4.42096 -180 7.01506e-015 178.759 178.429 6.74493 179.647 -2.68343e-006 -3.0579e-006 0.0861819 -18.8988 68.1144 19.6439 8.12585 25.2333 -3.4832 -174.097 -6.8073 -2.87524 4.5067e-006 -1.99009e-005 -1.265 -2.71009 -4.8419 -0.0279774 -1.73592e-007 -1.62038e-006 -0.0458166 18.3931 67.5461 -19.1554 -8.12844 25.2331 3.4843 
